<?xml version="1.0" encoding="UTF-8"?>
<svg id="Camada_1" xmlns="http://www.w3.org/2000/svg" version="1.1" viewBox="0 0 279.83 67.4">
  <!-- Generator: Adobe Illustrator 29.3.1, SVG Export Plug-In . SVG Version: 2.1.0 Build 151)  -->
  <defs>
    <style>
      .st0 {
        fill: #c200cc;
      }
    </style>
  </defs>
  <path class="st0" d="M232.3,38.87v-8.86c.45-.09.79-.47.79-.95,0-.54-.44-.99-.98-.99s-.98.44-.98.99c0,.48.35.86.79.95v8.86c-.45.09-.79.47-.79.95,0,.54.44.99.98.99s.98-.44.98-.99c0-.48-.35-.86-.79-.95Z"/>
  <path class="st0" d="M25.25,48.09h6.37c9,0,16.07-10.62,15.46-19.1-.49-6.77-7.56-16.2-14.73-16.2H15.42v7.28h15.47c.33,0,2.73.91,3.21,1.16,6.43,3.3,7.48,12.26,2.15,17.04-.59.53-3.29,2.18-3.9,2.18h-7.1v7.64Z"/>
  <polygon class="st0" points="81.65 12.79 73.46 12.79 65.64 25.37 70 32.44 81.65 12.79"/>
  <path class="st0" d="M112.22,12.79h-19.1c-4.05,0-8.3,5.85-8.56,9.71h7.33s1.04-2.43,2.32-2.43h18.01v-7.28Z"/>
  <rect class="st0" x="116.22" y="12.79" width="28.2" height="7.28"/>
  <path class="st0" d="M165.35,12.79c-13.83-1.25-23.57,12.96-17.36,25.55,7.7,15.62,31.22,11.48,33.38-5.54h-7.64c-3.45,12.75-21.5,9.28-20.02-4.19.62-5.65,6.24-9.14,11.65-8.55v-7.28Z"/>
  <path class="st0" d="M196.28,37.9h8.92c.41,0,3.72-1.22,4.3-1.52,7.47-3.91,8.14-15.3,1.88-20.67-.79-.68-4.65-2.92-5.45-2.92h-19.47v7.28h18.01c.46,0,2.33,1.5,2.73,2,1.47,1.87,1.53,4.43.24,6.42-.36.55-2.17,2.13-2.6,2.13h-8.55v7.28Z"/>
  <path class="st0" d="M234.85,48.09h7.82l10.38-24.02c.49-.41.56.13.76.52,1.68,3.29,3.15,7.25,4.33,10.76h-5.64l-2.73,7.28h11.1c1.44,0,2.2,4.54,3.28,5.46h6.91c.15,0,.63-.58.55-.89l-9.82-22.58c-.21-.61.4-.53,1.58-.53h2.94l-.69-1.2h-4.58c-.17-.66-1.88-3.18-.54-3.18,1.19,0,2.46.03,3.86.03l-.67-1.27-4.47-.02-2.21-5.61-6.71-.07-15.45,35.33Z"/>
  <path class="st0" d="M181.36,28.08c-.72-6.22-5.11-11.63-10.92-13.83v8.19c0,.33,3.51,1.84,3.92,5.64h6.99Z"/>
  <rect class="st0" x="126.41" y="22.98" width="7.28" height="24.93"/>
  <path class="st0" d="M85.29,48.09h19.1c.22,0,2.58-.84,2.98-1.03,7.49-3.6,7.84-13.77,1.19-18.42-4.32-3.02-8.97-.97-13.6-1.68-1.65-.25-3.63-2.13-3.63-2.13,0,0-4.88-.04-6.4,0,.22,4.55,4.93,8.86,9.32,9.39,3.36.41,12.5-1.74,11.78,3.83-.11.88-1.6,2.76-2.36,2.76h-18.38v7.28Z"/>
  <rect class="st0" x="15.78" y="25.53" width="7.28" height="22.56"/>
  <path class="st0" d="M12.53,36.33v-8.86c.45-.09.79-.47.79-.95,0-.54-.44-.99-.98-.99s-.98.44-.98.99c0,.48.35.86.79.95v8.86c-.45.09-.79.47-.79.95,0,.54.44.99.98.99s.98-.44.98-.99c0-.48-.35-.86-.79-.95Z"/>
  <path class="st0" d="M123.14,45.51v-21.07h-23.02c-.13-.42-.51-.74-.98-.74-.57,0-1.04.47-1.04,1.04s.47,1.04,1.04,1.04c.49,0,.88-.35.99-.8h22.45v20.57c-.37.15-.63.51-.63.93,0,.56.45,1.01,1.01,1.01s1.01-.45,1.01-1.01c0-.5-.36-.89-.83-.97Z"/>
  <path class="st0" d="M81.07,40.94h-9.81c-.11-.46-.5-.8-.99-.8-.57,0-1.04.47-1.04,1.04s.47,1.04,1.04,1.04c.43,0,.83-.3.98-.74h6.34c.54,0,1.08,0,1.62,0h2.27s3-4.11,3-4.11c.12,0,15.02,0,15.14,0,.13.47.54.8.99.8.57,0,1.04-.47,1.04-1.04s-.47-1.04-1.04-1.04c-.43,0-.83.3-.98.74h-15.55l-3,4.11h0Z"/>
  <path class="st0" d="M244.23,16.43c-.19.39-.09.87.24,1.2l-2.74,5.72h0c-.23.49-.47.97-.7,1.46-1.25,2.62-2.5,5.23-3.75,7.85-.46-.1-.94.11-1.15.55-.25.52-.03,1.14.49,1.39s1.14.03,1.39-.49c.19-.39.09-.87-.24-1.2l2.74-5.72h0c.23-.49.47-.97.7-1.46,1.25-2.62,2.5-5.23,3.75-7.85.46.1.94-.11,1.15-.55.25-.52.03-1.14-.49-1.39s-1.14-.03-1.39.49Z"/>
  <path class="st0" d="M186.45,25.71v22.38h7.64v-22.38h-7.64ZM188.55,37.14c0,.54,0,1.08,0,1.62h0c0,2.11,0,4.23,0,6.34.44.15.74.55.74.98,0,.57-.46,1.04-1.04,1.04s-1.04-.46-1.04-1.04c0-.49.35-.88.8-.99,0-2.9,0-5.8,0-8.7,0-.54,0-1.08,0-1.62h0c0-2.11,0-3.23,0-5.34-.44-.15-.74-.55-.74-.98,0-.57.46-1.04,1.04-1.04s1.04.46,1.04,1.04c0,.49-.35.88-.8.99,0,2.9,0,4.8,0,7.7Z"/>
  <path class="st0" d="M181.58,30.2s.42,0-5.38,0c-.11-.46-.5-.8-.99-.8-.57,0-1.04.47-1.04,1.04s.47,1.04,1.04,1.04c.43,0,.83-.3.98-.74,2.11,0,4.83,0,5.39,0v-.54Z"/>
  <path class="st0" d="M167.53,13.42s0-.42,0,5.38c-.46.11-.8.5-.8.99,0,.57.47,1.04,1.04,1.04s1.04-.47,1.04-1.04c0-.43-.3-.83-.74-.98,0-2.11,0-4.83,0-5.39h-.54Z"/>
  <path class="st0" d="M183.66,55.36c-.46,0-.84.31-.97.73h-49.92v-9.45h-.54v10.18h50.51c.17.35.51.59.92.59.57,0,1.03-.46,1.03-1.03s-.46-1.03-1.03-1.03Z"/>
  <path class="st0" d="M189.48,52.99h6.03c.34,0,.65.05.94.15s.55.24.77.41c.22.17.4.37.53.59.13.22.19.46.19.73v.34c0,.26-.06.5-.19.73s-.31.42-.53.6c-.22.17-.48.31-.77.41-.29.1-.6.15-.94.15h-4.32c-.27,0-.51.07-.7.22-.19.15-.29.33-.29.54v.33c0,.21.1.39.29.55s.43.23.7.23h6.03v1.1h-6.03c-.33,0-.65-.05-.95-.15-.3-.1-.56-.23-.78-.4-.22-.17-.39-.37-.52-.6-.13-.23-.19-.47-.19-.73v-.33c0-.26.06-.5.19-.73.13-.23.3-.43.52-.6.22-.17.48-.3.78-.4.3-.1.61-.15.95-.15h4.32c.28,0,.51-.08.7-.23.2-.15.29-.33.29-.55v-.34c0-.21-.1-.39-.29-.54-.19-.15-.43-.23-.7-.23h-6.03v-1.11Z"/>
  <path class="st0" d="M64.62,28.92c-1.56-2.7-9.17-16.12-9.17-16.12h-8.37l13.46,22.74v12.55h7.28v-14.37c0-.29-2.74-3.99-3.21-4.8ZM54.81,14.49c.58,0,1.06.47,1.06,1.06s-.47,1.06-1.06,1.06-1.06-.47-1.06-1.06.47-1.06,1.06-1.06ZM50.84,16.6c-.58,0-1.06-.47-1.06-1.06s.47-1.06,1.06-1.06,1.06.47,1.06,1.06-.47,1.06-1.06,1.06ZM53.22,20.41c-.58,0-1.06-.47-1.06-1.06s.47-1.06,1.06-1.06,1.06.47,1.06,1.06-.47,1.06-1.06,1.06ZM55.34,24.5c-.58,0-1.06-.47-1.06-1.06s.47-1.06,1.06-1.06,1.06.47,1.06,1.06-.47,1.06-1.06,1.06ZM56.14,19.36c0-.58.47-1.06,1.06-1.06s1.06.47,1.06,1.06-.47,1.06-1.06,1.06-1.06-.47-1.06-1.06ZM57.88,27.84c-.58,0-1.06-.47-1.06-1.06s.47-1.06,1.06-1.06,1.06.47,1.06,1.06-.47,1.06-1.06,1.06ZM59.31,24.5c-.58,0-1.06-.47-1.06-1.06s.47-1.06,1.06-1.06,1.06.47,1.06,1.06-.47,1.06-1.06,1.06Z"/>
  <path class="st0" d="M232.3,38.87v-8.86c.45-.09.79-.47.79-.95,0-.54-.44-.99-.98-.99s-.98.44-.98.99c0,.48.35.86.79.95v8.86c-.45.09-.79.47-.79.95,0,.54.44.99.98.99s.98-.44.98-.99c0-.48-.35-.86-.79-.95Z"/>
  <path class="st0" d="M221.39,12.79v34.82h7.59l.05-34.82h-7.64ZM227.16,46.02c-.58,0-1.06-.47-1.06-1.06s.47-1.06,1.06-1.06,1.06.47,1.06,1.06-.47,1.06-1.06,1.06ZM227.16,43.27c-.58,0-1.06-.47-1.06-1.06s.47-1.06,1.06-1.06,1.06.47,1.06,1.06-.47,1.06-1.06,1.06Z"/>
  <g>
    <path class="st0" d="M203.68,58.96h-1.38c-.37,0-.69-.1-.95-.31s-.4-.45-.4-.74v-2.79c0-.29.13-.54.4-.74.26-.2.58-.3.95-.3h1.38v-1.11h-1.45c-.39,0-.75.06-1.08.17s-.62.27-.88.46c-.25.19-.46.42-.6.68-.14.26-.22.54-.22.83v2.79c0,.3.07.58.22.83.14.26.34.48.6.68.25.2.55.35.88.46.33.11.69.16,1.08.16h1.45v-1.1Z"/>
    <path class="st0" d="M208.42,54.3c-.15-.26-.35-.49-.6-.68-.25-.19-.55-.35-.89-.46-.34-.12-.7-.17-1.08-.17h-1.29v1.11h1.36c.38,0,.7.1.96.3.26.2.39.45.39.74v2.79c0,.28-.13.53-.39.74-.26.21-.58.31-.96.31h-1.36v1.1h1.29c.38,0,.74-.05,1.08-.16.34-.11.64-.26.89-.46.25-.2.45-.43.6-.68.15-.26.22-.53.22-.83v-2.79c0-.29-.07-.57-.22-.83Z"/>
    <rect class="st0" x="203.47" y="55.97" width="1.29" height="1.11"/>
  </g>
  <g>
    <rect class="st0" x="213.88" y="55.97" width="1.29" height="1.11"/>
    <path class="st0" d="M214.05,58.96h-1.34c-.37,0-.69-.1-.95-.31s-.4-.45-.4-.74v-2.79c0-.29.13-.54.4-.74.26-.2.58-.3.95-.3h1.34v-1.11h-1.42c-.39,0-.75.06-1.08.17s-.62.27-.88.46c-.25.19-.46.42-.6.68-.14.26-.22.54-.22.83v2.79c0,.3.07.58.22.83.14.26.34.48.6.68.25.2.55.35.88.46.33.11.69.16,1.08.16h1.42v-1.1Z"/>
    <path class="st0" d="M218.83,54.3c-.15-.26-.35-.49-.6-.68-.25-.19-.55-.35-.89-.46-.34-.12-.7-.17-1.08-.17h-1.32v1.11h1.4c.38,0,.7.1.96.3.26.2.39.45.39.74v2.79c0,.28-.13.53-.39.74-.26.21-.58.31-.96.31h-1.4v1.1h1.32c.38,0,.74-.05,1.08-.16.34-.11.64-.26.89-.46.25-.2.45-.43.6-.68.15-.26.22-.53.22-.83v-2.79c0-.29-.07-.57-.22-.83Z"/>
  </g>
  <g>
    <path class="st0" d="M229.24,54.3c-.15-.26-.35-.49-.6-.68-.25-.19-.55-.35-.89-.46-.34-.12-.7-.17-1.08-.17h-1.25v1.11h1.33c.38,0,.7.1.96.3.26.2.39.45.39.74v2.79c0,.28-.13.53-.39.74-.26.21-.58.31-.96.31h-1.33v1.1h1.25c.38,0,.74-.05,1.08-.16.34-.11.64-.26.89-.46.25-.2.45-.43.6-.68.15-.26.22-.53.22-.83v-2.79c0-.29-.07-.57-.22-.83Z"/>
    <path class="st0" d="M224.53,58.96h-1.41c-.37,0-.69-.1-.95-.31s-.4-.45-.4-.74v-2.79c0-.29.13-.54.4-.74.26-.2.58-.3.95-.3h1.41v-1.11h-1.49c-.39,0-.75.06-1.08.17s-.63.27-.88.46c-.25.19-.46.42-.6.68-.14.26-.22.54-.22.83v2.79c0,.3.07.58.22.83.14.26.34.48.6.68.25.2.55.35.88.46.33.11.69.16,1.08.16h1.49v-1.1Z"/>
    <rect class="st0" x="224.29" y="55.97" width="1.29" height="1.11"/>
  </g>
</svg>